<?xml version="1.0" encoding="UTF-8"?>
<!DOCTYPE svg PUBLIC "-//W3C//DTD SVG 1.1//EN" "http://www.w3.org/Graphics/SVG/1.1/DTD/svg11.dtd">
<!-- Creator: CorelDRAW X7 -->
<svg xmlns="http://www.w3.org/2000/svg" xml:space="preserve" width="400px" height="400px" version="1.1" shape-rendering="geometricPrecision" text-rendering="geometricPrecision" image-rendering="optimizeQuality" fill-rule="evenodd" clip-rule="evenodd"
viewBox="0 0 400 400"
 xmlns:xlink="http://www.w3.org/1999/xlink">
 <defs>
     <linearGradient id="id0" gradientUnits="userSpaceOnUse" x1="58.7352" y1="339.941" x2="130.798" y2="270.204">
      <stop offset="0" stop-opacity="1" stop-color="#C641FE"/>
      <stop offset="0.560784" stop-opacity="1" stop-color="#E221FE"/>
      <stop offset="1" stop-opacity="1" stop-color="fuchsia"/>
     </linearGradient>
     <linearGradient id="id1" gradientUnits="userSpaceOnUse" x1="75.299" y1="191.737" x2="144.198" y2="125.061">
      <stop offset="0" stop-opacity="1" stop-color="#C641FE"/>
      <stop offset="0.560784" stop-opacity="1" stop-color="#E221FE"/>
      <stop offset="1" stop-opacity="1" stop-color="fuchsia"/>
     </linearGradient>
     <linearGradient id="id2" gradientUnits="userSpaceOnUse" x1="122.109" y1="162.493" x2="232.034" y2="56.1131">
      <stop offset="0" stop-opacity="1" stop-color="#C641FE"/>
      <stop offset="0.560784" stop-opacity="1" stop-color="#E221FE"/>
      <stop offset="1" stop-opacity="1" stop-color="fuchsia"/>
     </linearGradient>
     <linearGradient id="id3" gradientUnits="userSpaceOnUse" x1="220.119" y1="171.14" x2="257.343" y2="142.188">
      <stop offset="0" stop-opacity="1" stop-color="#9BFE94"/>
      <stop offset="1" stop-opacity="1" stop-color="#99FF99"/>
     </linearGradient>
     <linearGradient id="id4" gradientUnits="userSpaceOnUse" x1="170.327" y1="238.829" x2="294.003" y2="119.142">
      <stop offset="0" stop-opacity="1" stop-color="#A920E3"/>
      <stop offset="0.701961" stop-opacity="1" stop-color="#D410F1"/>
      <stop offset="1" stop-opacity="1" stop-color="fuchsia"/>
     </linearGradient>
 </defs>
 <g id="Layer_x0020_1">
  <metadata id="CorelCorpID_0Corel-Layer"/>
  <polygon fill="#1A1A1A" points="400,400 0,400 0,0 400,0 "/>
  <g id="_1976654700560">
   <g>
    <path fill="url(#id0)" fill-rule="nonzero" d="M44 317l0 0 13 -36 13 0 0 49 -10 0 0 -34 0 0 -12 34 -7 0 -12 -34 0 0 0 34 -10 0 0 -49 13 0 12 36zm53 -8l-4 0 0 21 -10 0 0 -49 10 0 0 20 3 0 13 -20 12 0 -17 22 19 27 -13 0 -13 -21zm51 7l1 3 0 0 1 -3 10 -35 11 0 -17 49 -10 0 -17 -49 11 0 10 35z"/>
    <path fill="white" fill-rule="nonzero" d="M191 330c-5,0 -9,-1 -12,-5 -3,-3 -4,-7 -4,-12 0,-6 1,-11 4,-14 3,-3 7,-5 12,-5 5,0 9,2 12,5 3,3 4,8 4,13 0,6 -1,10 -4,13 -3,4 -7,5 -12,5zm0 -33c-4,0 -7,1 -9,4 -3,3 -4,7 -4,12 0,4 1,8 3,11 3,2 6,4 10,4 4,0 8,-2 10,-4 2,-3 3,-7 3,-12 0,-5 -1,-8 -3,-11 -2,-3 -6,-4 -10,-4zm44 33c-6,0 -9,-1 -12,-5 -3,-3 -5,-7 -5,-12 0,-6 2,-11 5,-14 3,-3 7,-5 12,-5 5,0 9,2 12,5 2,3 4,8 4,13 0,6 -2,10 -5,13 -2,4 -6,5 -11,5zm0 -33c-4,0 -8,1 -10,4 -2,3 -4,7 -4,12 0,4 2,8 4,11 2,2 6,4 10,4 4,0 7,-2 9,-4 2,-3 4,-7 4,-12 0,-5 -2,-8 -4,-11 -2,-3 -5,-4 -9,-4zm54 33l0 -7 0 0c-2,3 -3,4 -5,6 -3,1 -5,1 -8,1 -4,0 -8,-1 -10,-4 -3,-3 -4,-8 -4,-13 0,-6 1,-10 4,-14 3,-3 7,-5 11,-5 6,0 9,2 12,7l0 0 0 -22 3 0 0 51 -3 0zm0 -21c0,-4 -1,-6 -3,-9 -2,-2 -5,-3 -9,-3 -3,0 -6,1 -9,4 -2,3 -3,7 -3,12 0,4 1,8 3,11 2,2 5,4 8,4 4,0 7,-2 9,-4 3,-2 4,-5 4,-9l0 -6zm32 21c-5,0 -9,-1 -12,-5 -3,-3 -4,-7 -4,-12 0,-6 2,-11 5,-14 3,-3 7,-5 12,-5 5,0 9,2 11,5 3,3 5,8 5,13 0,6 -2,10 -5,13 -3,4 -7,5 -12,5zm1 -33c-4,0 -8,1 -10,4 -3,3 -4,7 -4,12 0,4 1,8 4,11 2,2 5,4 9,4 5,0 8,-2 10,-4 2,-3 3,-7 3,-12 0,-5 -1,-8 -3,-11 -2,-3 -5,-4 -9,-4zm43 33c-5,0 -9,-1 -12,-5 -3,-3 -5,-7 -5,-12 0,-6 2,-11 5,-14 3,-3 7,-5 12,-5 5,0 9,2 12,5 3,3 4,8 4,13 0,6 -1,10 -4,13 -3,4 -7,5 -12,5zm0 -33c-4,0 -7,1 -10,4 -2,3 -3,7 -3,12 0,4 1,8 3,11 3,2 6,4 10,4 4,0 7,-2 10,-4 2,-3 3,-7 3,-12 0,-5 -1,-8 -3,-11 -3,-3 -6,-4 -10,-4z"/>
    <path fill="white" fill-rule="nonzero" d="M71 379l-1 0 -9 -25 2 0 7 21c0,0 0,1 1,2l0 0c0,-1 0,-1 0,-2l8 -21 2 0 -10 25zm17 -22c0,0 -1,0 -1,0 0,-1 0,-1 0,-1 0,-1 0,-1 0,-1 0,-1 1,-1 1,-1 0,0 1,0 1,1 0,0 0,0 0,1 0,0 0,0 0,1 0,0 -1,0 -1,0zm-1 22l0 -18 2 0 0 18 -2 0zm23 0l0 -3 0 0c-1,1 -2,2 -3,3 -1,1 -2,1 -4,1 -2,0 -4,-1 -5,-3 -2,-1 -2,-3 -2,-6 0,-3 0,-5 2,-7 1,-2 3,-3 6,-3 3,0 4,1 6,3l0 0 0 -11 1 0 0 26 -1 0zm0 -11c0,-1 -1,-3 -2,-4 -1,-1 -2,-2 -4,-2 -2,0 -4,1 -5,3 -1,1 -2,3 -2,6 0,2 1,4 2,5 1,2 2,2 4,2 2,0 4,0 5,-2 1,-1 2,-2 2,-4l0 -4zm10 3c0,2 0,4 2,5 1,2 2,2 4,2 2,0 4,0 6,-2l0 2c-2,1 -4,2 -6,2 -2,0 -4,-1 -6,-3 -1,-1 -2,-4 -2,-7 0,-2 1,-4 2,-6 2,-2 4,-3 6,-3 2,0 4,1 5,2 2,2 2,4 2,7l0 1 -13 0zm12 -2c-1,-2 -1,-4 -2,-5 -1,-1 -2,-2 -4,-2 -2,0 -3,1 -4,2 -1,1 -2,3 -2,5l12 0zm15 11c-2,0 -4,-1 -6,-3 -1,-1 -2,-4 -2,-6 0,-3 1,-6 2,-7 2,-2 4,-3 7,-3 2,0 4,1 6,3 1,1 2,4 2,6 0,3 -1,6 -2,7 -2,2 -4,3 -7,3zm0 -18c-2,0 -3,1 -5,3 -1,1 -2,3 -2,6 0,2 1,4 2,5 2,2 3,2 5,2 3,0 4,0 5,-2 2,-1 2,-3 2,-6 0,-2 0,-4 -2,-5 -1,-2 -2,-3 -5,-3zm43 17c-2,0 -4,1 -7,1 -3,0 -6,-1 -8,-4 -2,-2 -3,-5 -3,-9 0,-4 1,-7 3,-9 3,-3 6,-4 9,-4 2,0 4,0 6,1l0 2c-2,-1 -4,-2 -6,-2 -3,0 -6,1 -8,4 -2,2 -3,5 -3,8 0,4 1,6 3,8 2,2 5,3 7,3 3,0 5,0 7,-1l0 2zm15 1c-3,0 -5,-1 -7,-3 -1,-1 -2,-4 -2,-6 0,-3 1,-6 3,-7 1,-2 3,-3 6,-3 2,0 4,1 6,3 1,1 2,4 2,6 0,3 -1,6 -2,7 -2,2 -4,3 -6,3zm0 -18c-2,0 -4,1 -5,3 -2,1 -2,3 -2,6 0,2 0,4 2,5 1,2 3,2 5,2 2,0 4,0 5,-2 1,-1 1,-3 1,-6 0,-2 0,-4 -1,-5 -1,-2 -3,-3 -5,-3zm27 17l0 -10c0,-4 -1,-7 -4,-7 -2,0 -4,1 -5,2 -1,2 -1,3 -1,5l0 10 -2 0 0 -18 2 0 0 4 0 0c1,-3 3,-4 6,-4 2,0 3,1 4,2 1,1 2,3 2,5l0 11 -2 0zm16 0l-2 0 -7 -18 2 0 5 15c1,0 1,1 1,2l0 0c0,-1 0,-2 1,-2l5 -15 2 0 -7 18zm13 -8c0,2 0,4 2,5 1,2 2,2 4,2 2,0 4,0 6,-2l0 2c-2,1 -4,2 -6,2 -2,0 -4,-1 -6,-3 -1,-1 -2,-4 -2,-7 0,-2 1,-4 2,-6 2,-2 4,-3 6,-3 3,0 4,1 5,2 2,2 2,4 2,7l0 1 -13 0zm12 -2c-1,-2 -1,-4 -2,-5 -1,-1 -2,-2 -4,-2 -1,0 -3,1 -4,2 -1,1 -2,3 -2,5l12 0zm17 -6c-1,0 -2,0 -2,0 -2,0 -3,0 -4,2 -1,1 -1,3 -1,6l0 8 -2 0 0 -18 2 0 0 4 0 0c0,-1 1,-2 2,-3 1,-1 2,-1 3,-1 0,0 1,0 2,0l0 2zm14 16c-1,1 -1,1 -2,1 -3,0 -4,-2 -4,-5l0 -12 -3 0 0 -2 3 0 0 -4c0,0 0,0 1,0 0,-1 0,-1 0,-1l0 5 5 0 0 2 -5 0 0 12c0,1 1,2 1,2 0,1 1,1 2,1 1,0 1,0 2,0l0 1zm7 -8c0,2 0,4 1,5 1,2 3,2 5,2 2,0 4,0 6,-2l0 2c-2,1 -4,2 -6,2 -3,0 -5,-1 -6,-3 -1,-1 -2,-4 -2,-7 0,-2 1,-4 2,-6 2,-2 4,-3 6,-3 2,0 4,1 5,2 1,2 2,4 2,7l0 1 -13 0zm11 -2c0,-2 0,-4 -1,-5 -1,-1 -3,-2 -4,-2 -2,0 -3,1 -4,2 -1,1 -2,3 -2,5l11 0zm17 -6c0,0 -1,0 -2,0 -1,0 -2,0 -3,2 -1,1 -2,3 -2,6l0 8 -1 0 0 -18 1 0 0 4 0 0c1,-1 2,-2 2,-3 1,-1 2,-1 3,-1 1,0 2,0 2,0l0 2z"/>
   </g>
   <g>
    <path fill="#9BFE94" fill-rule="nonzero" d="M132 93c2,0 3,-1 4,-1 5,-1 10,-1 14,2 5,2 8,5 11,10 0,1 0,2 1,3 0,2 -1,4 -2,4 -2,1 -4,1 -5,2 -5,1 -10,1 -14,-1 -4,-2 -8,-6 -10,-11 0,-1 0,-3 -1,-4 0,-1 1,-3 2,-4zm86 -1c1,0 3,1 4,1 1,1 2,3 2,4 -1,1 -1,3 -1,4 -2,5 -6,9 -10,11 -4,2 -9,2 -14,1 -1,-1 -3,-1 -4,-2 -2,0 -3,-2 -3,-4 1,-1 1,-2 2,-3 2,-5 5,-8 10,-10 4,-3 9,-3 14,-2z"/>
    <path fill="url(#id1)" fill-rule="nonzero" d="M139 222c-16,-2 -32,-9 -43,-20 -12,-13 -20,-30 -20,-49 0,-20 8,-37 20,-49 3,-4 7,-7 11,-9 0,2 0,5 0,7 -2,2 -4,4 -6,6 -12,12 -19,27 -19,45 0,17 7,33 19,44 11,11 26,18 43,19l-5 6z"/>
    <path fill="#C641FE" fill-rule="nonzero" d="M166 179c-2,-1 -3,-2 -3,-4 1,-2 2,-3 4,-2 2,0 3,0 5,1l-4 5c-1,0 -2,0 -2,0z"/>
    <path fill="#C641FE" fill-rule="nonzero" d="M160 168c-2,0 -3,-1 -4,-3 0,-2 1,-3 3,-4 7,-2 15,-3 23,-3l-5 7c-5,0 -11,1 -17,3z"/>
    <path fill="#C641FE" fill-rule="nonzero" d="M197 128c-1,-1 -2,-3 -1,-4 1,-2 3,-2 4,-2 2,1 3,2 4,2l-3 6c-1,-1 -3,-1 -4,-2z"/>
    <path fill="url(#id2)" fill-rule="nonzero" d="M224 122c5,-4 6,-5 7,-9 1,-6 1,-13 2,-20 1,-10 2,-20 3,-30l-24 -29 -32 40c0,0 0,1 -1,1 -1,1 -3,1 -4,-1l-33 -41 -24 30c1,18 3,35 6,52l0 0c5,5 10,8 15,10 5,1 10,0 16,-3 1,-1 3,0 4,1 1,2 0,4 -1,5 -7,4 -14,5 -20,3 -4,-1 -9,-3 -13,-6 2,11 4,22 7,33 1,-3 3,-6 5,-8 4,-5 9,-9 14,-13 2,-1 4,-1 5,1 1,1 0,3 -1,4 -5,4 -10,8 -13,12 -3,4 -5,8 -7,12 3,4 6,8 9,12 4,5 10,10 15,15l-4 5c-5,-4 -12,-11 -16,-16 -4,-5 -8,-10 -11,-16l0 0c0,0 -1,0 -1,-1 -4,-15 -7,-32 -10,-49 -3,-17 -4,-35 -6,-54l0 0c0,0 1,-1 1,-2l27 -33c0,-1 1,-2 1,-2 12,-3 24,-5 36,-5 12,0 25,2 37,5 1,0 1,1 2,1l27 34c1,0 1,1 1,2 -1,11 -2,21 -3,32 -1,10 -3,25 -5,35l-11 -7zm-17 -92c-10,-2 -21,-3 -31,-3 -9,0 -19,1 -28,3l29 37 30 -37zm-39 86c1,-2 2,-3 4,-3 2,1 3,2 3,4 -1,5 -2,9 -2,13 -1,4 -2,7 -2,10 0,0 0,0 1,0 0,1 1,1 2,2 0,0 1,1 2,1 0,0 1,0 1,1 1,-1 1,-1 1,-1 1,0 2,-1 3,-1 0,-1 1,-1 2,-2 0,0 0,0 1,0 -1,-3 -2,-6 -2,-10 -1,-4 -1,-8 -2,-13 -1,-2 1,-3 2,-4 2,0 4,1 4,3 1,4 2,9 2,13 1,4 2,8 2,12l0 0c0,1 0,2 -1,3 -1,0 -1,1 -2,2 -1,0 -2,1 -3,1 -1,1 -2,1 -3,2 -1,0 -2,1 -2,1l0 0c-1,1 -2,1 -3,0 -1,0 -2,-1 -3,-1 -1,-1 -2,-1 -3,-2 -1,0 -1,-1 -2,-1 -1,-1 -2,-2 -3,-2 -1,-1 -1,-2 -1,-3 1,-4 2,-8 2,-12 1,-4 2,-9 2,-13zm58 -41c1,0 2,2 2,4 -1,2 -3,3 -4,2 -8,-2 -14,-2 -20,0 -5,2 -10,6 -14,12 -1,2 -3,2 -5,1 -1,-1 -2,-3 -1,-4 5,-7 11,-13 18,-15 7,-3 15,-3 24,0zm-96 6c-1,1 -3,0 -4,-2 0,-2 1,-4 2,-4 9,-3 17,-3 24,0 7,2 13,8 18,15 1,1 0,3 -1,4 -2,1 -4,1 -5,-1 -4,-6 -9,-10 -14,-12 -6,-2 -12,-2 -20,0z"/>
    <path fill="#9BFE94" fill-rule="nonzero" d="M148 209c0,0 -1,0 -1,0 -3,0 -5,-1 -7,-3 -2,-2 -3,-4 -3,-7 0,-2 1,-4 2,-5 4,3 8,7 11,10l1 1 -3 4zm-27 -14c-2,2 -4,2 -7,2 -2,0 -5,-1 -7,-3 -1,-1 -2,-4 -2,-6 0,-3 1,-5 3,-7 2,-2 4,-3 6,-3 3,0 5,1 7,3 2,2 3,4 3,7 0,2 -1,5 -3,7zm-19 -64l0 0 0 0c-2,-2 -3,-5 -3,-7 0,-3 1,-5 2,-7l1 0 0 0 0 0c1,-2 4,-3 6,-3 0,0 1,0 1,0 0,1 0,2 1,3 0,5 1,10 2,16 -1,0 -2,0 -3,0 -3,0 -5,-1 -7,-2l0 0 0 0zm-3 35c-3,0 -5,-1 -7,-2 -2,-2 -3,-4 -3,-7 0,-3 1,-5 3,-7 1,-2 4,-3 7,-3 2,0 5,1 6,3 2,2 3,4 3,7l0 0 0 0 0 0c0,2 -1,5 -3,7 -1,1 -4,2 -6,2l0 0 0 0 0 0zm-6 -27c0,0 -1,-1 -1,-2l0 0c0,-1 1,-2 1,-2 1,-1 2,-1 3,-2 1,0 1,1 2,1l0 0 0 0 0 0c1,1 1,2 1,3l0 0c0,1 0,2 -1,2l0 0 0 0 0 0 0 0c0,1 -1,1 -2,1l0 0c-1,0 -2,0 -3,-1l0 0 0 0 0 0zm6 41c-1,0 -1,0 -2,-1 -1,-1 -1,-1 -1,-2 0,-1 0,-2 1,-3 0,0 1,-1 2,-1l0 0 0 0 0 0c1,0 2,0 3,1 0,1 1,1 1,2l0 0 0 0 0 0 0 0c0,1 -1,2 -1,3 -1,1 -2,1 -3,1l0 0 0 0 0 0zm32 24c-1,1 -2,1 -3,1 -1,0 -2,0 -2,-1 -1,-1 -1,-2 -1,-2l0 0c0,-1 0,-2 1,-3l0 0 0 0 0 0c0,-1 1,-1 2,-1 1,0 2,0 3,1l0 0 0 0 0 0c0,1 1,2 1,3 0,0 -1,1 -1,2z"/>
    <path fill="url(#id3)" fill-rule="nonzero" d="M217 177l0 -42c0,-2 1,-4 3,-4 1,0 2,1 2,1l37 22c1,1 2,3 1,4 0,1 -1,1 -1,1l-37 23c-2,0 -4,0 -5,-2 0,-1 0,-2 0,-3z"/>
    <polygon fill="#64DB8B" fill-rule="nonzero" points="223,140 223,173 251,157 "/>
    <path fill="url(#id4)" fill-rule="nonzero" d="M247 97l60 36c20,12 26,30 0,45l-131 78c-24,15 -43,-10 -33,-26l14 -20c13,-20 26,-40 39,-59l0 0 11 -17 0 0c0,0 0,0 0,1l0 42c0,3 0,6 2,8 4,7 12,9 18,5l37 -22c2,-1 3,-3 4,-5 4,-6 2,-14 -4,-18l-21 -12 0 -3c1,-11 3,-22 4,-33z"/>
    <path fill="white" fill-rule="nonzero" d="M247 123l22 14 0 0 0 0c6,3 9,8 11,14 1,6 1,12 -3,18l0 0c-1,1 -2,3 -3,4 -2,2 -3,3 -5,4l0 0 -37 22c-5,3 -12,4 -17,2 -6,-1 -12,-5 -15,-10 -1,-3 -2,-5 -3,-7 0,-2 0,-4 0,-7l0 -9 -3 4c-9,15 -19,29 -29,44l-13 20 0 0c-1,0 -1,1 -1,1 0,1 -1,2 -1,3 1,1 1,3 2,5 1,1 2,3 4,4 2,1 4,1 7,1 2,0 5,-1 8,-2l131 -78c2,-2 6,-4 8,-7 2,-2 4,-5 4,-8 0,-2 -2,-4 -3,-6 -3,-3 -6,-5 -9,-7l-54 -32 1 -6 56 33c3,2 7,5 10,9 2,2 4,6 4,9 1,5 -2,9 -5,12 -3,3 -7,6 -10,7l-130 78c-4,2 -7,3 -11,4 -3,0 -6,-1 -10,-2 -2,-2 -4,-4 -6,-6 -1,-3 -2,-5 -2,-8 0,-2 0,-3 1,-4 0,-1 0,-2 1,-3l0 -1 14 -19c10,-15 19,-29 29,-44l7 -11 5 -8 0 9 0 18c0,2 0,4 1,6 0,2 1,3 2,5 2,4 6,7 11,8 4,1 9,1 13,-2l37 -22 0 0c2,-1 3,-2 4,-3 1,-1 2,-2 3,-3l0 0c2,-4 3,-9 2,-14 -2,-4 -4,-8 -9,-11l0 0 0 0 -20 -12 1 -6z"/>
    <path fill="#64DB8B" fill-rule="nonzero" d="M217 99c-4,-1 -8,-1 -11,0 -2,2 -5,4 -6,7 0,0 0,0 1,0 3,1 7,1 10,0 2,-1 4,-4 6,-7l0 0z"/>
    <path fill="#64DB8B" fill-rule="nonzero" d="M148 99c-3,-1 -7,-1 -10,0l0 0c1,3 3,6 6,7 2,1 6,1 10,0 0,0 0,0 0,0 -1,-3 -3,-5 -6,-7z"/>
    <path fill="#64DB8B" fill-rule="nonzero" d="M144 198c0,1 0,1 0,1 0,1 0,2 1,3 0,0 1,1 2,1 0,0 1,-1 1,-1 -1,-1 -3,-2 -4,-4zm-30 -7c1,0 2,0 2,-1 1,-1 1,-1 1,-2 0,-1 0,-2 0,-2 -1,-1 -2,-1 -3,-1 0,0 -1,0 -2,1 0,0 -1,1 -1,2 0,1 0,1 1,2 1,1 1,1 2,1zm-18 -32c1,1 2,1 3,1l0 0 0 0 0 0c1,0 1,0 2,-1 0,-1 1,-1 1,-2l0 0 0 0 0 0c0,-1 -1,-2 -1,-2 -1,-1 -2,-1 -2,-1 -1,0 -2,0 -3,1 0,0 -1,1 0,2 0,1 0,2 0,2zm10 -33l0 0 0 0 0 0c1,0 2,1 3,1 0,0 1,-1 2,-1l0 0 0 0 0 0 0 0c0,-2 -1,-4 -1,-5 0,0 -1,-1 -2,-1 0,0 -1,1 -2,1l0 1 0 0 0 0c0,0 -1,1 -1,2 0,1 1,1 1,2l0 0z"/>
   </g>
  </g>
 </g>
</svg>
